<svg xmlns="http://www.w3.org/2000/svg" viewBox="0 0 77.04 76.96"><defs><style>.cls-1{fill:#365d96;}</style></defs><g id="Layer_2" data-name="Layer 2"><g id="Layer_1-2" data-name="Layer 1"><path class="cls-1" d="M51.8,40.7A21.8,21.8,0,0,0,62.6,22.2C62.6,10,51.8,0,38.52,0S14.45,10,14.45,22.2A21.79,21.79,0,0,0,25.24,40.7C10.53,45.7,0,58.72,0,74v3H77V74C77,58.72,66.51,45.7,51.8,40.7ZM20.87,22.2c0-9,7.92-16.28,17.65-16.28s17.66,7.3,17.66,16.28S48.25,38.48,38.52,38.48,20.87,31.18,20.87,22.2ZM6.58,71C8.19,56.1,21.9,44.4,38.52,44.4S68.85,56.1,70.46,71Z"/></g></g></svg>